<svg xmlns="http://www.w3.org/2000/svg" viewBox="0 0 820 620" role="img" aria-label="واجهة تطبيق بابل">
  <defs>
    <linearGradient id="gold" x1="0" y1="0" x2="1" y2="1">
      <stop offset="0" stop-color="#FFF5D6" />
      <stop offset="0.55" stop-color="#D4AF37" />
      <stop offset="1" stop-color="#8C701D" />
    </linearGradient>
    <radialGradient id="glow" cx="0.45" cy="0.12" r="0.9">
      <stop offset="0" stop-color="#D4AF37" stop-opacity="0.25" />
      <stop offset="0.65" stop-color="#D4AF37" stop-opacity="0.06" />
      <stop offset="1" stop-color="#D4AF37" stop-opacity="0" />
    </radialGradient>
    <linearGradient id="screen" x1="0" y1="0" x2="0" y2="1">
      <stop offset="0" stop-color="#0F0F0F" />
      <stop offset="1" stop-color="#060606" />
    </linearGradient>
  </defs>

  <rect width="820" height="620" rx="40" fill="url(#glow)" />

  <g transform="translate(250 35)">
    <rect x="0" y="0" width="320" height="550" rx="56" fill="#0A0A0A" stroke="rgba(255,255,255,0.10)" stroke-width="2" />
    <rect x="18" y="18" width="284" height="514" rx="42" fill="url(#screen)" />
    <rect x="120" y="14" width="80" height="18" rx="9" fill="#050505" />

    <g transform="translate(34 42)">
      <rect x="0" y="0" width="252" height="54" rx="20" fill="rgba(255,255,255,0.04)" stroke="rgba(255,255,255,0.08)" />
      <circle cx="32" cy="27" r="12" fill="url(#gold)" fill-opacity="0.9" />
      <text x="220" y="34" font-size="14" font-family="Tajawal, Arial, sans-serif" fill="rgba(255,255,255,0.82)" text-anchor="end">بابل</text>
    </g>

    <g transform="translate(34 112)">
      <rect x="0" y="0" width="252" height="44" rx="18" fill="#101010" stroke="rgba(255,255,255,0.08)" />
      <rect x="16" y="14" width="130" height="16" rx="8" fill="rgba(255,255,255,0.14)" />
      <circle cx="232" cy="22" r="10" fill="rgba(212,175,55,0.24)" stroke="rgba(212,175,55,0.35)" />
    </g>

    <g transform="translate(34 172)">
      <rect x="0" y="0" width="252" height="122" rx="24" fill="rgba(255,255,255,0.03)" stroke="rgba(255,255,255,0.08)" />
      <rect x="14" y="14" width="92" height="92" rx="18" fill="#121212" />
      <rect x="118" y="22" width="112" height="12" rx="6" fill="rgba(255,255,255,0.18)" />
      <rect x="118" y="44" width="88" height="10" rx="5" fill="rgba(255,255,255,0.12)" />
      <rect x="118" y="66" width="100" height="10" rx="5" fill="rgba(255,255,255,0.10)" />
      <rect x="118" y="90" width="76" height="26" rx="13" fill="rgba(212,175,55,0.16)" stroke="rgba(212,175,55,0.28)" />
      <rect x="132" y="98" width="48" height="10" rx="5" fill="rgba(245,240,220,0.8)" />
    </g>

    <g transform="translate(34 308)">
      <rect x="0" y="0" width="252" height="90" rx="24" fill="rgba(255,255,255,0.03)" stroke="rgba(255,255,255,0.08)" />
      <rect x="14" y="14" width="60" height="60" rx="18" fill="#121212" />
      <rect x="88" y="22" width="126" height="12" rx="6" fill="rgba(255,255,255,0.18)" />
      <rect x="88" y="44" width="104" height="10" rx="5" fill="rgba(255,255,255,0.12)" />
      <rect x="88" y="62" width="72" height="10" rx="5" fill="rgba(255,255,255,0.10)" />
    </g>

    <g transform="translate(34 414)">
      <rect x="0" y="0" width="252" height="74" rx="24" fill="rgba(255,255,255,0.03)" stroke="rgba(255,255,255,0.08)" />
      <rect x="14" y="14" width="224" height="12" rx="6" fill="rgba(255,255,255,0.16)" />
      <rect x="14" y="34" width="178" height="10" rx="5" fill="rgba(255,255,255,0.11)" />
      <rect x="14" y="52" width="90" height="10" rx="5" fill="rgba(255,255,255,0.09)" />
    </g>
  </g>

  <g transform="translate(80 120)" opacity="0.95">
    <rect x="0" y="0" width="220" height="140" rx="26" fill="rgba(255,255,255,0.03)" stroke="rgba(255,255,255,0.08)" />
    <text x="20" y="36" font-size="14" font-family="Tajawal, Arial, sans-serif" fill="rgba(255,255,255,0.85)">واجهة فاخرة</text>
    <text x="20" y="64" font-size="12" font-family="Tajawal, Arial, sans-serif" fill="rgba(255,255,255,0.55)">تركيز على الوضوح والسرعة</text>
    <rect x="20" y="90" width="88" height="26" rx="13" fill="rgba(212,175,55,0.16)" stroke="rgba(212,175,55,0.28)" />
    <rect x="118" y="90" width="80" height="26" rx="13" fill="rgba(255,255,255,0.06)" stroke="rgba(255,255,255,0.10)" />
  </g>

  <g transform="translate(570 360)" opacity="0.95">
    <rect x="0" y="0" width="240" height="170" rx="28" fill="rgba(255,255,255,0.03)" stroke="rgba(255,255,255,0.08)" />
    <text x="22" y="40" font-size="14" font-family="Tajawal, Arial, sans-serif" fill="rgba(255,255,255,0.85)">طلبات أوضح</text>
    <rect x="22" y="58" width="196" height="12" rx="6" fill="rgba(255,255,255,0.14)" />
    <rect x="22" y="78" width="160" height="10" rx="5" fill="rgba(255,255,255,0.10)" />
    <rect x="22" y="104" width="90" height="26" rx="13" fill="rgba(212,175,55,0.16)" stroke="rgba(212,175,55,0.28)" />
    <rect x="122" y="104" width="96" height="26" rx="13" fill="rgba(255,255,255,0.06)" stroke="rgba(255,255,255,0.10)" />
    <circle cx="214" cy="138" r="6" fill="#D4AF37" />
    <circle cx="194" cy="138" r="6" fill="rgba(212,175,55,0.45)" />
    <circle cx="174" cy="138" r="6" fill="rgba(212,175,55,0.25)" />
  </g>
</svg>
